<svg t="1650270825166" class="icon" viewBox="0 0 1024 1024" version="1.1" xmlns="http://www.w3.org/2000/svg" p-id="3130" data-spm-anchor-id="a313x.7781069.0.i10" width="200" height="200"><path d="M843.294118 746.917647c6.023529 0 6.023529 0 6.023529-6.023529v-6.02353H843.294118c-6.023529 0-6.023529 0-6.02353 6.02353s0 6.023529 6.02353 6.023529zM716.8 891.482353c6.023529 0 12.047059-6.023529 12.047059-12.047059s-6.023529-12.047059-12.047059-12.047059-6.023529 0-6.023529 6.02353l-6.02353 6.023529c0 12.047059 6.023529 12.047059 12.047059 12.047059zM548.141176 969.788235c12.047059 0 18.070588-6.023529 18.070589-18.070588 0-12.047059-6.023529-18.070588-18.070589-18.070588-6.023529 0-12.047059 0-12.047058 6.023529-6.023529 6.023529-6.023529 6.023529-6.02353 12.047059 6.023529 12.047059 12.047059 18.070588 18.070588 18.070588zM367.435294 969.788235c6.023529 0 12.047059 0 18.070588-6.023529 6.023529-6.023529 6.023529-12.047059 6.02353-18.070588 0-6.023529 0-12.047059-6.02353-18.070589s-12.047059-6.023529-18.070588-6.023529c-6.023529 0-12.047059 0-18.070588 6.023529s-6.023529 12.047059-6.02353 18.070589c0 6.023529 0 12.047059 6.02353 18.070588 6.023529 0 12.047059 6.023529 18.070588 6.023529zM210.823529 885.458824c18.070588 0 30.117647-12.047059 30.117647-30.117648s-12.047059-30.117647-30.117647-30.117647-30.117647 12.047059-30.117647 30.117647 12.047059 30.117647 30.117647 30.117648zM102.4 740.894118c18.070588 0 36.141176-18.070588 36.141176-36.141177S120.470588 662.588235 102.4 662.588235s-36.141176 18.070588-36.141176 36.141177 18.070588 42.164706 36.141176 42.164706z" fill="#10BB88" p-id="3131"></path><path d="M24.094118 512a42.164706 42.164706 0 1 0 84.329411 0 42.164706 42.164706 0 1 0-84.329411 0Z" fill="#10BB88" p-id="3132"></path><path d="M60.235294 325.270588a48.188235 48.188235 0 1 0 96.376471 0 48.188235 48.188235 0 1 0-96.376471 0Z" fill="#10BB88" p-id="3133"></path><path d="M216.847059 234.917647c30.117647 0 54.211765-24.094118 54.211765-54.211765s-24.094118-60.235294-54.211765-60.235294-54.211765 24.094118-54.211765 54.211765 24.094118 60.235294 54.211765 60.235294z" fill="#10BB88" p-id="3134"></path><path d="M319.247059 90.352941a60.235294 60.235294 0 1 0 120.470588 0 60.235294 60.235294 0 1 0-120.470588 0Z" fill="#10BB88" p-id="3135"></path><path d="M493.929412 84.329412a66.258824 66.258824 0 1 0 132.517647 0 66.258824 66.258824 0 1 0-132.517647 0Z" fill="#10BB88" p-id="3136"></path><path d="M728.847059 234.917647c36.141176 0 72.282353-30.117647 72.282353-72.282353s-30.117647-72.282353-72.282353-72.282353c-36.141176 0-72.282353 30.117647-72.282353 72.282353s30.117647 72.282353 72.282353 72.282353zM843.294118 385.505882c42.164706 0 78.305882-36.141176 78.305882-78.305882 0-42.164706-36.141176-78.305882-78.305882-78.305882-42.164706 0-78.305882 36.141176-78.305883 78.305882 6.023529 42.164706 42.164706 78.305882 78.305883 78.305882z" fill="#10BB88" p-id="3137"></path><path d="M819.2 493.929412a84.329412 78.305882 90 1 0 156.611765 0 84.329412 78.305882 90 1 0-156.611765 0Z" fill="#10BB88" p-id="3138"></path></svg>